<?xml version="1.0" encoding="UTF-8"?>
<svg width="24px" height="24px" viewBox="0 0 24 24" version="1.1" xmlns="http://www.w3.org/2000/svg">
    <g stroke="none" stroke-width="1" fill="none" fill-rule="evenodd">
        <path d="M21,6 L3,6 C1.9,6 1,6.9 1,8 L1,16 C1,17.1 1.9,18 3,18 L21,18 C22.1,18 23,17.1 23,16 L23,8 C23,6.9 22.1,6 21,6 Z M11,13 L9,13 L9,15 L7,15 L7,13 L5,13 L5,11 L7,11 L7,9 L9,9 L9,11 L11,11 L11,13 Z M15.5,15 C14.67,15 14,14.33 14,13.5 C14,12.67 14.67,12 15.5,12 C16.33,12 17,12.67 17,13.5 C17,14.33 16.33,15 15.5,15 Z M18.5,15 C17.67,15 17,14.33 17,13.5 C17,12.67 17.67,12 18.5,12 C19.33,12 20,12.67 20,13.5 C20,14.33 19.33,15 18.5,15 Z" fill="#0EA5E9" fill-rule="nonzero"></path>
    </g>
</svg> 